<svg xmlns="http://www.w3.org/2000/svg" aria-hidden="true">
  <symbol id="i-badge" viewBox="0 0 24 24">
    <path d="M12 2 4 5v6c0 5 3.5 9 8 11 4.5-2 8-6 8-11V5l-8-3z" fill="currentColor" stroke="none"/>
    <path d="M12 7l1.3 2.6 2.9.4-2.1 2 .5 2.9L12 13.6l-2.6 1.3.5-2.9L7.8 10l2.9-.4L12 7z" fill="#0a0a0d"/>
  </symbol>
  <symbol id="i-menu" viewBox="0 0 24 24" fill="none" stroke="currentColor" stroke-width="2" stroke-linecap="round">
    <path d="M3 6h18M3 12h18M3 18h18"/>
  </symbol>
  <symbol id="i-camera" viewBox="0 0 24 24" fill="none" stroke="currentColor" stroke-width="1.6" stroke-linecap="round" stroke-linejoin="round">
    <path d="M3 8.5a2 2 0 0 1 2-2h2.2l1.3-1.6A1.4 1.4 0 0 1 9.6 4.4h4.8c.4 0 .8.2 1.1.5l1.3 1.6H19a2 2 0 0 1 2 2v8.5a2 2 0 0 1-2 2H5a2 2 0 0 1-2-2V8.5z"/>
    <circle cx="12" cy="12.6" r="3.4"/>
  </symbol>
  <symbol id="i-scales" viewBox="0 0 100 100">
    <g fill="none" stroke="currentColor" stroke-width="2" stroke-linecap="round" stroke-linejoin="round">
      <path d="M50 12v74"/>
      <circle cx="50" cy="10" r="3"/>
      <path d="M20 28h60"/>
      <path d="M50 28l-22 26M50 28l22 26"/>
      <path d="M14 54a14 14 0 0 0 28 0"/>
      <path d="M12 54h32"/>
      <path d="M58 54a14 14 0 0 0 28 0"/>
      <path d="M56 54h32"/>
      <path d="M38 86h24"/>
      <path d="M34 90h32"/>
    </g>
  </symbol>
  <symbol id="i-gavel" viewBox="0 0 24 24" fill="none" stroke="currentColor" stroke-width="1.6" stroke-linecap="round" stroke-linejoin="round">
    <path d="M14 4l6 6"/>
    <path d="M11 7l6 6"/>
    <path d="M9.5 8.5l-5.5 5.5 2.5 2.5 5.5-5.5"/>
    <path d="M3 21h12"/>
  </symbol>
  <symbol id="i-arrow" viewBox="0 0 24 24" fill="none" stroke="currentColor" stroke-width="2" stroke-linecap="round" stroke-linejoin="round">
    <path d="M5 12h14M13 6l6 6-6 6"/>
  </symbol>
  <symbol id="i-mail" viewBox="0 0 24 24" fill="none" stroke="currentColor" stroke-width="1.7" stroke-linecap="round" stroke-linejoin="round">
    <rect x="3" y="5" width="18" height="14" rx="2"/>
    <path d="M3 7l9 7 9-7"/>
  </symbol>
  <symbol id="i-phone" viewBox="0 0 24 24" fill="none" stroke="currentColor" stroke-width="1.7" stroke-linecap="round" stroke-linejoin="round">
    <path d="M5 4h3l2 5-2.5 1.5a12 12 0 0 0 6 6L15 14l5 2v3a2 2 0 0 1-2 2A16 16 0 0 1 3 6a2 2 0 0 1 2-2z"/>
  </symbol>
  <symbol id="i-pin" viewBox="0 0 24 24" fill="none" stroke="currentColor" stroke-width="1.7" stroke-linecap="round" stroke-linejoin="round">
    <path d="M12 22s7-7.6 7-13a7 7 0 0 0-14 0c0 5.4 7 13 7 13z"/>
    <circle cx="12" cy="9.5" r="2.5"/>
  </symbol>
  <symbol id="i-send" viewBox="0 0 24 24" fill="none" stroke="currentColor" stroke-width="2" stroke-linecap="round" stroke-linejoin="round">
    <path d="M22 2L11 13"/>
    <path d="M22 2l-7 20-4-9-9-4 20-7z"/>
  </symbol>
  <symbol id="i-check" viewBox="0 0 24 24" fill="none" stroke="currentColor" stroke-width="3" stroke-linecap="round" stroke-linejoin="round">
    <path d="M5 12.5l5 5L20 7"/>
  </symbol>
  <symbol id="s-facebook" viewBox="0 0 24 24">
    <path d="M14 9h3V6h-3a3 3 0 0 0-3 3v2H8v3h3v7h3v-7h2.5l.5-3H14V9.5c0-.3.2-.5.5-.5z" fill="currentColor"/>
  </symbol>
  <symbol id="s-twitter" viewBox="0 0 24 24">
    <path d="M3 3h4.2l4.6 6.3L17 3h3l-6.5 7.7L21 21h-4.2l-5-6.8L5 21H2l7-8.4L3 3z" fill="currentColor"/>
  </symbol>
  <symbol id="s-instagram" viewBox="0 0 24 24" fill="none" stroke="currentColor" stroke-width="1.7" stroke-linecap="round" stroke-linejoin="round">
    <rect x="3" y="3" width="18" height="18" rx="5"/>
    <circle cx="12" cy="12" r="4"/>
    <circle cx="17.5" cy="6.5" r=".9" fill="currentColor" stroke="none"/>
  </symbol>
  <symbol id="s-linkedin" viewBox="0 0 24 24">
    <path d="M4.5 3.5a2 2 0 1 1 0 4 2 2 0 0 1 0-4zM3 9h3v12H3V9zm5 0h2.9v1.7h.04A3.2 3.2 0 0 1 14 9c3.1 0 3.7 2 3.7 4.7V21h-3v-6.3c0-1.5 0-3.4-2-3.4s-2.4 1.6-2.4 3.3V21H8V9z" fill="currentColor"/>
  </symbol>
  <symbol id="s-pinterest" viewBox="0 0 24 24">
    <path d="M12 2a10 10 0 0 0-3.7 19.3c-.1-.8-.2-2 0-2.9l1.3-5.5s-.3-.7-.3-1.7c0-1.6.9-2.8 2.1-2.8 1 0 1.5.7 1.5 1.6 0 1-.6 2.5-1 3.9-.3 1.2.6 2.1 1.7 2.1 2.1 0 3.6-2.7 3.6-6 0-2.5-1.7-4.3-4.7-4.3-3.4 0-5.5 2.6-5.5 5.4 0 1.1.4 2.2 1 2.9.1.1.1.2.1.3l-.3 1.3c-.1.2-.2.3-.4.2-1.5-.7-2.5-2.9-2.5-4.7 0-3.8 2.8-7.4 8-7.4 4.2 0 7.5 3 7.5 7 0 4.2-2.6 7.5-6.3 7.5-1.2 0-2.4-.6-2.8-1.4l-.8 2.9c-.3 1.1-1 2.4-1.5 3.2A10 10 0 1 0 12 2z" fill="currentColor"/>
  </symbol>
  <symbol id="ach-ribbon" viewBox="0 0 24 24" fill="none" stroke="currentColor" stroke-width="1.6" stroke-linecap="round" stroke-linejoin="round">
    <circle cx="12" cy="9" r="5"/>
    <path d="M12 4l1 2 2 .3-1.5 1.5.4 2-1.9-1-1.9 1 .4-2L9 6.3 11 6l1-2z"/>
    <path d="M8.5 13.5L6 22l3.5-1.5L12 22l2.5-1.5L18 22l-2.5-8.5"/>
  </symbol>
  <symbol id="ach-book" viewBox="0 0 24 24" fill="none" stroke="currentColor" stroke-width="1.6" stroke-linecap="round" stroke-linejoin="round">
    <path d="M3 5a2 2 0 0 1 2-2h5v16H5a2 2 0 0 1-2-2V5z"/>
    <path d="M21 5a2 2 0 0 0-2-2h-5v16h5a2 2 0 0 0 2-2V5z"/>
    <path d="M14 9l.8 1.6 1.7.2-1.2 1.2.3 1.7L14 13l-1.6.7.3-1.7L11.5 10.8l1.7-.2L14 9z" fill="currentColor" stroke="none"/>
  </symbol>
  <symbol id="ach-grad" viewBox="0 0 24 24" fill="none" stroke="currentColor" stroke-width="1.6" stroke-linecap="round" stroke-linejoin="round">
    <path d="M2 9l10-4 10 4-10 4L2 9z"/>
    <path d="M6 11v4c0 1.5 3 3 6 3s6-1.5 6-3v-4"/>
    <path d="M16 14v3l1.5 1.5L19 17v-3" stroke="none" fill="currentColor" opacity=".15"/>
    <path d="M16 14v3c0 1 1.5 1.7 1.5 1.7S19 18 19 17v-3z"/>
  </symbol>
</svg>
